<svg version="1.1" viewBox="0.0 0.0 1024.0 768.0" fill="none" stroke="none" stroke-linecap="square" stroke-miterlimit="10" xmlns:xlink="http://www.w3.org/1999/xlink" xmlns="http://www.w3.org/2000/svg"><clipPath id="p.0"><path d="m0 0l1024.0 0l0 768.0l-1024.0 0l0 -768.0z" clip-rule="nonzero"/></clipPath><g clip-path="url(#p.0)"><path fill="#000000" fill-opacity="0.0" d="m0 0l1024.0 0l0 768.0l-1024.0 0z" fill-rule="evenodd"/><path fill="#000000" d="m467.32703 186.71951l74.96063 0l0 421.25986l-74.96063 0z" fill-rule="evenodd"/><path stroke="#ffffff" stroke-width="2.745406824146982" stroke-linejoin="round" stroke-linecap="butt" d="m467.32703 186.71951l74.96063 0l0 421.25986l-74.96063 0z" fill-rule="evenodd"/><path fill="#000000" d="m220.65031 372.06036l0 0c0 -196.44058 125.349045 -356.28644 281.08032 -358.43524c155.73123 -2.148818 283.8226 154.19998 287.22964 350.59357l-74.887634 2.0668945c-2.3370361 -155.43857 -96.62158 -279.33826 -211.36456 -277.755c-114.74298 1.5832748 -207.14554 128.05898 -207.14554 283.5298z" fill-rule="evenodd"/><path stroke="#ffffff" stroke-width="2.745406824146982" stroke-linejoin="round" stroke-linecap="butt" d="m220.65031 372.06036l0 0c0 -196.44058 125.349045 -356.28644 281.08032 -358.43524c155.73123 -2.148818 283.8226 154.19998 287.22964 350.59357l-74.887634 2.0668945c-2.3370361 -155.43857 -96.62158 -279.33826 -211.36456 -277.755c-114.74298 1.5832748 -207.14554 128.05898 -207.14554 283.5298z" fill-rule="evenodd"/><path fill="#000000" d="m788.99274 397.34384l0 0c0 196.44058 -125.34906 356.2864 -281.0803 358.4352c-155.73123 2.1488647 -283.82263 -154.19995 -287.2296 -350.59354l74.88762 -2.0668945c2.3370056 155.43857 96.62158 279.3383 211.36456 277.75497c114.74298 -1.583252 207.14557 -128.05896 207.14557 -283.52975z" fill-rule="evenodd"/><path stroke="#ffffff" stroke-width="2.745406824146982" stroke-linejoin="round" stroke-linecap="butt" d="m788.99274 397.34384l0 0c0 196.44058 -125.34906 356.2864 -281.0803 358.4352c-155.73123 2.1488647 -283.82263 -154.19995 -287.2296 -350.59354l74.88762 -2.0668945c2.3370056 155.43857 96.62158 279.3383 211.36456 277.75497c114.74298 -1.583252 207.14557 -128.05896 207.14557 -283.52975z" fill-rule="evenodd"/></g></svg>