<svg version="1.1" viewBox="0.0 0.0 1024.0 768.0" fill="none" stroke="none" stroke-linecap="square" stroke-miterlimit="10" xmlns:xlink="http://www.w3.org/1999/xlink" xmlns="http://www.w3.org/2000/svg"><clipPath id="p.0"><path d="m0 0l1024.0 0l0 768.0l-1024.0 0l0 -768.0z" clip-rule="nonzero"/></clipPath><g clip-path="url(#p.0)"><path fill="#000000" fill-opacity="0.0" d="m0 0l1024.0 0l0 768.0l-1024.0 0z" fill-rule="evenodd"/><path fill="#000000" d="m169.6588 60.10499l670.2992 0l0 674.4882l-670.2992 0zm83.7874 83.78741l0 506.9134l502.7244 0l0 -506.9134z" fill-rule="evenodd"/><path stroke="#ffffff" stroke-width="1.0" stroke-linejoin="round" stroke-linecap="butt" d="m169.6588 60.10499l670.2992 0l0 674.4882l-670.2992 0zm83.7874 83.78741l0 506.9134l502.7244 0l0 -506.9134z" fill-rule="evenodd"/><path fill="#000000" fill-opacity="0.0" d="m169.6588 397.3491l84.59842 -0.2204895" fill-rule="evenodd"/><path stroke="#ffffff" stroke-width="24.0" stroke-linejoin="round" stroke-linecap="butt" d="m169.6588 397.3491l84.59842 -0.2204895" fill-rule="evenodd"/><path fill="#000000" d="m471.2756 228.78215l81.44882 0l0 337.13385l-81.44882 0z" fill-rule="evenodd"/><path stroke="#ffffff" stroke-width="2.745406824146982" stroke-linejoin="round" stroke-linecap="butt" d="m471.2756 228.78215l81.44882 0l0 337.13385l-81.44882 0z" fill-rule="evenodd"/><path fill="#000000" fill-opacity="0.0" d="m755.35956 397.45932l84.59845 -0.2204895" fill-rule="evenodd"/><path stroke="#ffffff" stroke-width="24.0" stroke-linejoin="round" stroke-linecap="butt" d="m755.35956 397.45932l84.59845 -0.2204895" fill-rule="evenodd"/></g></svg>